# xmcd CD database file
#
# Track frame offsets:
#	150
#	19687
#	36525
#	57072
#	76562
#	93337
#	125017
#
# Disc length: 4440 seconds
#
# Revision: 2
# Processed by: cddbd v1.5.1PL0 Copyright (c) Steve Scherf et al.
# Submitted via: CDex 1.60beta1
#
DISCID=4d115607
DTITLE=倖田來未 - Butterfly
DYEAR=2005
DGENRE=J-POP
TTITLE0=Butterfly
TTITLE1=Your Sunshine
TTITLE2=大切な君へ
TTITLE3=Butterfly (Instrumental)
TTITLE4=Your Sunshine (Instrumental)
TTITLE5=大切な君へ (Instrumental)
TTITLE6=Data
EXTD=YEAR: 2005
EXTT0=
EXTT1=
EXTT2=
EXTT3=
EXTT4=
EXTT5=
EXTT6=
PLAYORDER=
